# xmcd
#
# Track frame offsets:
#	150
#	9787
#	26599
#	39857
#	53538
#	62855
#	72002
#	86004
#	96168
#	108148
#	121905
#	133339
#	145657
#	157199
#	169772
#	181836
#	192917
#	204709
#	213145
#	227694
#
# Disc length: 3226 seconds
#
# Revision: 1
# Processed by: cddbd v1.5.2PL0 Copyright (c) Steve Scherf et al.
# Submitted via: audiograbber 1.83.01
#
DISCID=070c9814
DTITLE=Willie Nelson - Ashamed
DYEAR=2007
DGENRE=Country
TTITLE0=Ashamed
TTITLE1=I Let My Mind Wander
TTITLE2=I Just Don´t Unterstand
TTITLE3=Undo The Right
TTITLE4=On Step Beyond
TTITLE5=Right From Wrong
TTITLE6=So Much To Do
TTITLE7=Healing Hands Of Time
TTITLE8=End Of Understanding
TTITLE9=No Tomorrow In Sight
TTITLE10=Suffering In Silence
TTITLE11=Pages
TTITLE12=December Day
TTITLE13=Any Old Arms Won´t Do
TTITLE14=Follow Me Around
TTITLE15=Go Away
TTITLE16=Night Life
TTITLE17=Slow Down Old World
TTITLE18=What Can You Do To Be Now
TTITLE19=Will You Remember Mine
EXTD=
EXTT0=
EXTT1=
EXTT2=
EXTT3=
EXTT4=
EXTT5=
EXTT6=
EXTT7=
EXTT8=
EXTT9=
EXTT10=
EXTT11=
EXTT12=
EXTT13=
EXTT14=
EXTT15=
EXTT16=
EXTT17=
EXTT18=
EXTT19=
PLAYORDER=
